<?xml version="1.0" encoding="UTF-8"?>
<!DOCTYPE svg PUBLIC "-//W3C//DTD SVG 1.1//EN" "http://www.w3.org/Graphics/SVG/1.1/DTD/svg11.dtd">
<!-- Creator: CorelDRAW 2021.5 -->
<svg xmlns="http://www.w3.org/2000/svg" xml:space="preserve" width="54mm" height="85mm" version="1.1" style="shape-rendering:geometricPrecision; text-rendering:geometricPrecision; image-rendering:optimizeQuality; fill-rule:evenodd; clip-rule:evenodd" viewBox="0 0 5398.26 8497.26" xmlns:xlink="http://www.w3.org/1999/xlink" xmlns:xodm="http://www.corel.com/coreldraw/odm/2003">
 <defs>
  <style type="text/css">
   <![CDATA[
    .str0 {stroke:#21CEED;stroke-width:99.97;stroke-miterlimit:22.9256}
    .fil10 {fill:none}
    .fil0 {fill:#FEFEFE}
    .fil1 {fill:#DCDDDD}
    .fil9 {fill:#006532}
    .fil2 {fill:#21CEED}
    .fil3 {fill:#2C2F42}
    .fil7 {fill:#FDD100}
    .fil4 {fill:#FF6600}
    .fil5 {fill:#FFA200}
    .fil6 {fill:#FFC100}
    .fil8 {fill:#FFC400}
   ]]>
  </style>
 </defs>
 <g id="Layer_x0020_1">
  <metadata id="CorelCorpID_0Corel-Layer"/>
  <path class="fil0" d="M-0 8497.26l5398.26 0 0 -8497.26 -5398.26 0 0 8497.26zm2929.29 -6223.56c808.94,0 1464.73,655.78 1464.73,1464.73 0,808.94 -655.79,1464.73 -1464.73,1464.73 -808.95,0 -1464.73,-655.79 -1464.73,-1464.73 0,-808.95 655.78,-1464.73 1464.73,-1464.73z"/>
  <g id="_2341683692144">
   <g>
    <path class="fil1" d="M310.11 3977.34c46.97,-17.54 99.27,6.31 116.81,53.28 17.53,46.96 -6.32,99.26 -53.28,116.8 -46.97,17.54 -99.27,-6.31 -116.81,-53.28 -17.53,-46.96 6.32,-99.26 53.28,-116.8z"/>
    <path class="fil1" d="M288.42 3569.99c46.96,-17.54 99.26,6.31 116.8,53.28 17.54,46.96 -6.32,99.26 -53.28,116.8 -46.96,17.54 -99.27,-6.32 -116.8,-53.28 -17.54,-46.96 6.31,-99.27 53.28,-116.8z"/>
    <path class="fil1" d="M332.66 3162.16c46.97,-17.54 99.27,6.31 116.8,53.27 17.54,46.97 -6.31,99.27 -53.27,116.81 -46.97,17.53 -99.27,-6.32 -116.81,-53.28 -17.53,-46.97 6.32,-99.27 53.28,-116.8z"/>
    <path class="fil1" d="M438.91 2769.08c46.97,-17.54 99.27,6.31 116.81,53.28 17.53,46.96 -6.32,99.26 -53.28,116.8 -46.97,17.54 -99.27,-6.32 -116.8,-53.28 -17.54,-46.96 6.31,-99.26 53.27,-116.8z"/>
    <path class="fil1" d="M604.91 2395.11c46.96,-17.54 99.26,6.32 116.8,53.28 17.54,46.96 -6.31,99.27 -53.28,116.8 -46.96,17.54 -99.26,-6.31 -116.8,-53.28 -17.54,-46.96 6.31,-99.26 53.28,-116.8z"/>
    <path class="fil1" d="M829.01 2051.58c46.96,-17.54 99.26,6.32 116.8,53.28 17.54,46.96 -6.31,99.26 -53.28,116.8 -46.96,17.54 -99.26,-6.31 -116.8,-53.28 -17.54,-46.96 6.31,-99.26 53.28,-116.8z"/>
    <path class="fil1" d="M1102.64 1747.24c46.96,-17.54 99.26,6.31 116.8,53.28 17.54,46.96 -6.32,99.26 -53.28,116.8 -46.96,17.54 -99.27,-6.32 -116.8,-53.28 -17.54,-46.96 6.31,-99.27 53.28,-116.8z"/>
    <path class="fil1" d="M1420.64 1493.38c46.96,-17.53 99.26,6.32 116.8,53.28 17.54,46.97 -6.32,99.27 -53.28,116.8 -46.96,17.54 -99.26,-6.31 -116.8,-53.27 -17.54,-46.97 6.31,-99.27 53.28,-116.81z"/>
    <path class="fil1" d="M1774.93 1287.27c46.97,-17.54 99.27,6.31 116.81,53.27 17.53,46.97 -6.32,99.27 -53.28,116.81 -46.97,17.53 -99.27,-6.32 -116.81,-53.28 -17.53,-46.97 6.32,-99.27 53.28,-116.8z"/>
    <path class="fil1" d="M5043.61 2167.21c-48,17.92 -72.39,71.38 -54.45,119.37 17.92,48 71.37,72.39 119.37,54.46 48,-17.93 72.39,-71.38 54.46,-119.38 -17.93,-48 -71.38,-72.39 -119.38,-54.45z"/>
    <path class="fil1" d="M4786.17 1848.3c-47.53,17.75 -71.68,70.68 -53.93,118.21 17.75,47.53 70.68,71.68 118.21,53.92 47.53,-17.75 71.68,-70.68 53.92,-118.21 -17.74,-47.53 -70.68,-71.68 -118.2,-53.92z"/>
    <path class="fil1" d="M4481.37 1574.19c-46.96,17.53 -70.82,69.84 -53.28,116.8 17.54,46.96 69.84,70.83 116.81,53.28 46.96,-17.54 70.82,-69.84 53.28,-116.8 -17.54,-46.97 -69.84,-70.83 -116.81,-53.28z"/>
    <path class="fil1" d="M4140.5 1350.76c-46.96,17.54 -70.82,69.84 -53.28,116.8 17.54,46.97 69.84,70.83 116.81,53.28 46.96,-17.53 70.82,-69.84 53.28,-116.8 -17.54,-46.96 -69.84,-70.83 -116.81,-53.28z"/>
    <path class="fil1" d="M3767.18 1182.59c-46.96,17.54 -70.83,69.84 -53.28,116.8 17.54,46.97 69.84,70.83 116.8,53.28 46.97,-17.53 70.83,-69.84 53.28,-116.8 -17.53,-46.96 -69.84,-70.83 -116.8,-53.28z"/>
    <path class="fil1" d="M3372.83 1080.72c-46.96,17.54 -70.82,69.84 -53.27,116.81 17.53,46.96 69.83,70.82 116.8,53.28 46.96,-17.54 70.82,-69.84 53.28,-116.81 -17.54,-46.96 -69.84,-70.82 -116.81,-53.28z"/>
    <path class="fil1" d="M2965.54 1038.22c-46.97,17.54 -70.83,69.84 -53.28,116.81 17.53,46.96 69.84,70.82 116.8,53.28 46.96,-17.54 70.83,-69.84 53.28,-116.81 -17.54,-46.96 -69.84,-70.82 -116.8,-53.28z"/>
    <path class="fil1" d="M2557.07 1057.63c-46.96,17.53 -70.83,69.84 -53.28,116.8 17.54,46.96 69.84,70.83 116.8,53.28 46.97,-17.54 70.83,-69.84 53.28,-116.8 -17.54,-46.97 -69.84,-70.83 -116.8,-53.28z"/>
    <path class="fil1" d="M2155.45 1143.53c-46.96,17.54 -70.82,69.84 -53.28,116.81 17.54,46.96 69.84,70.82 116.81,53.28 46.96,-17.54 70.82,-69.84 53.27,-116.81 -17.53,-46.96 -69.83,-70.82 -116.8,-53.28z"/>
    <path class="fil1" d="M612.95 3724.59c50.45,-18.84 106.64,6.79 125.49,57.24 18.84,50.46 -6.79,106.65 -57.25,125.5 -50.45,18.84 -106.64,-6.79 -125.49,-57.25 -18.84,-50.45 6.79,-106.65 57.25,-125.49z"/>
    <path class="fil1" d="M634.8 3317.6c50.45,-18.84 106.65,6.79 125.49,57.24 18.84,50.46 -6.79,106.65 -57.25,125.49 -50.45,18.84 -106.64,-6.78 -125.49,-57.24 -18.84,-50.46 6.79,-106.65 57.25,-125.49z"/>
    <path class="fil1" d="M727.25 2919.24c50.46,-18.85 106.65,6.78 125.49,57.24 18.84,50.46 -6.79,106.65 -57.24,125.49 -50.46,18.84 -106.65,-6.79 -125.49,-57.24 -18.85,-50.46 6.78,-106.65 57.24,-125.49z"/>
    <path class="fil1" d="M888.87 2543.99c50.45,-18.85 106.64,6.78 125.49,57.24 18.84,50.46 -6.79,106.65 -57.25,125.49 -50.45,18.84 -106.65,-6.79 -125.49,-57.24 -18.84,-50.46 6.79,-106.65 57.25,-125.49z"/>
    <path class="fil1" d="M1116.99 2205.62c50.46,-18.84 106.65,6.78 125.49,57.24 18.84,50.46 -6.79,106.65 -57.24,125.49 -50.46,18.84 -106.65,-6.79 -125.49,-57.24 -18.84,-50.46 6.78,-106.65 57.24,-125.49z"/>
    <path class="fil1" d="M1399.45 1910.6c50.46,-18.84 106.65,6.79 125.49,57.25 18.84,50.45 -6.78,106.64 -57.24,125.49 -50.46,18.84 -106.65,-6.79 -125.49,-57.25 -18.84,-50.45 6.78,-106.65 57.24,-125.49z"/>
    <path class="fil1" d="M1730.9 1670.67c50.46,-18.84 106.65,6.78 125.5,57.24 18.84,50.46 -6.79,106.65 -57.25,125.49 -50.45,18.84 -106.65,-6.78 -125.49,-57.24 -18.84,-50.46 6.79,-106.65 57.24,-125.49z"/>
    <path class="fil1" d="M2100.59 1494.7c50.45,-18.84 106.65,6.79 125.49,57.24 18.84,50.46 -6.79,106.65 -57.24,125.49 -50.46,18.84 -106.65,-6.78 -125.49,-57.24 -18.85,-50.46 6.78,-106.65 57.24,-125.49z"/>
    <path class="fil1" d="M2497.57 1389.2c50.46,-18.84 106.65,6.79 125.49,57.24 18.84,50.46 -6.78,106.65 -57.24,125.5 -50.46,18.84 -106.65,-6.79 -125.49,-57.25 -18.84,-50.45 6.78,-106.65 57.24,-125.49z"/>
    <path class="fil1" d="M2905.12 1356.29c50.46,-18.84 106.65,6.78 125.49,57.24 18.84,50.46 -6.79,106.65 -57.24,125.49 -50.46,18.84 -106.65,-6.78 -125.49,-57.24 -18.85,-50.46 6.78,-106.65 57.24,-125.49z"/>
    <path class="fil1" d="M3309.82 1391.51c50.45,-18.84 106.64,6.78 125.49,57.24 18.84,50.46 -6.79,106.65 -57.25,125.49 -50.45,18.84 -106.65,-6.78 -125.49,-57.24 -18.84,-50.46 6.79,-106.65 57.25,-125.49z"/>
    <path class="fil1" d="M3704.17 1502.73c50.46,-18.84 106.65,6.79 125.49,57.25 18.85,50.45 -6.78,106.64 -57.24,125.49 -50.45,18.84 -106.65,-6.79 -125.49,-57.25 -18.84,-50.45 6.79,-106.64 57.24,-125.49z"/>
    <path class="fil1" d="M4072.12 1683.85c50.46,-18.85 106.65,6.78 125.49,57.24 18.84,50.46 -6.78,106.65 -57.24,125.49 -50.46,18.84 -106.65,-6.79 -125.49,-57.24 -18.84,-50.46 6.79,-106.65 57.24,-125.49z"/>
    <path class="fil1" d="M4400.78 1928.9c49.3,-18.41 104.21,6.63 122.62,55.94 18.41,49.3 -6.63,104.21 -55.93,122.62 -49.31,18.41 -104.21,-6.63 -122.62,-55.93 -18.42,-49.31 6.63,-104.21 55.93,-122.63z"/>
    <path class="fil1" d="M4682.77 2225.94c49.3,-18.41 104.21,6.63 122.62,55.94 18.41,49.3 -6.63,104.2 -55.93,122.62 -49.31,18.41 -104.21,-6.63 -122.62,-55.94 -18.42,-49.3 6.63,-104.21 55.93,-122.62z"/>
    <path class="fil1" d="M963.14 3915.47c35.89,-13.4 75.84,4.83 89.24,40.72 13.41,35.89 -4.82,75.84 -40.71,89.24 -35.89,13.41 -75.85,-4.82 -89.25,-40.71 -13.4,-35.89 4.83,-75.85 40.72,-89.25z"/>
    <path class="fil1" d="M954.49 3505.89c35.89,-13.4 75.85,4.83 89.25,40.72 13.4,35.88 -4.83,75.84 -40.72,89.24 -35.88,13.41 -75.84,-4.83 -89.24,-40.71 -13.41,-35.89 4.83,-75.85 40.71,-89.25z"/>
    <path class="fil1" d="M1026.52 3103.01c35.89,-13.41 75.85,4.82 89.24,40.71 13.41,35.89 -4.82,75.85 -40.71,89.25 -35.89,13.4 -75.85,-4.83 -89.24,-40.72 -13.41,-35.89 4.82,-75.84 40.71,-89.24z"/>
    <path class="fil1" d="M1185.67 2726.98c35.89,-13.41 75.85,4.82 89.25,40.71 13.4,35.89 -4.83,75.85 -40.72,89.24 -35.89,13.41 -75.84,-4.82 -89.24,-40.71 -13.41,-35.89 4.82,-75.85 40.71,-89.24z"/>
    <path class="fil1" d="M1418.62 2389.85c35.89,-13.41 75.85,4.83 89.24,40.71 13.41,35.89 -4.82,75.85 -40.71,89.25 -35.89,13.4 -75.85,-4.83 -89.24,-40.72 -13.41,-35.88 4.82,-75.84 40.71,-89.24z"/>
    <path class="fil1" d="M1714.6 2110.2c35.89,-13.4 75.85,4.83 89.24,40.72 13.41,35.89 -4.82,75.84 -40.71,89.24 -35.89,13.41 -75.85,-4.82 -89.24,-40.71 -13.41,-35.89 4.82,-75.85 40.71,-89.25z"/>
    <path class="fil1" d="M2063.4 1895.87c35.89,-13.41 75.84,4.82 89.24,40.71 13.41,35.89 -4.82,75.85 -40.71,89.24 -35.89,13.41 -75.85,-4.82 -89.25,-40.71 -13.4,-35.89 4.83,-75.85 40.72,-89.24z"/>
    <path class="fil1" d="M2449.24 1761.23c35.89,-13.4 75.85,4.83 89.24,40.72 13.41,35.89 -4.82,75.84 -40.71,89.24 -35.89,13.41 -75.85,-4.82 -89.24,-40.71 -13.41,-35.89 4.82,-75.85 40.71,-89.25z"/>
    <path class="fil1" d="M2852.64 1706.79c35.89,-13.41 75.85,4.83 89.25,40.72 13.41,35.88 -4.83,75.84 -40.71,89.24 -35.89,13.41 -75.85,-4.83 -89.25,-40.71 -13.41,-35.89 4.83,-75.85 40.71,-89.25z"/>
    <path class="fil1" d="M3260.75 1739.76c35.89,-13.4 75.85,4.83 89.25,40.72 13.4,35.88 -4.83,75.84 -40.72,89.24 -35.88,13.41 -75.84,-4.83 -89.24,-40.71 -13.41,-35.89 4.83,-75.85 40.71,-89.25z"/>
    <path class="fil1" d="M3653.27 1856.54c35.89,-13.4 75.85,4.83 89.24,40.72 13.41,35.88 -4.82,75.84 -40.71,89.24 -35.89,13.41 -75.85,-4.83 -89.24,-40.71 -13.41,-35.89 4.82,-75.85 40.71,-89.25z"/>
    <path class="fil1" d="M4011.9 2053.05c35.89,-13.41 75.85,4.82 89.24,40.71 13.41,35.89 -4.82,75.84 -40.71,89.24 -35.89,13.41 -75.84,-4.82 -89.24,-40.71 -13.41,-35.89 4.82,-75.85 40.71,-89.24z"/>
    <path class="fil1" d="M4322.57 2318.23c35.89,-13.4 75.85,4.83 89.24,40.72 13.41,35.89 -4.82,75.84 -40.71,89.24 -35.89,13.41 -75.85,-4.82 -89.24,-40.71 -13.41,-35.89 4.82,-75.85 40.71,-89.25z"/>
    <path class="fil1" d="M4570.02 2643.17c35.34,-13.2 74.68,4.75 87.87,40.08 13.2,35.34 -4.75,74.68 -40.09,87.87 -35.33,13.2 -74.67,-4.75 -87.86,-40.08 -13.21,-35.34 4.75,-74.68 40.08,-87.87z"/>
    <path class="fil1" d="M4201.92 2693.9c20.25,-7.57 42.82,2.73 50.38,22.98 7.57,20.26 -2.73,42.82 -22.98,50.38 -20.26,7.57 -42.82,-2.72 -50.38,-22.98 -7.57,-20.25 2.72,-42.82 22.98,-50.38z"/>
    <path class="fil1" d="M3915.27 2402.3c20.48,-7.66 43.3,2.75 50.95,23.24 7.65,20.49 -2.76,43.31 -23.24,50.95 -20.49,7.66 -43.31,-2.75 -50.96,-23.24 -7.65,-20.48 2.76,-43.31 23.25,-50.95z"/>
    <path class="fil1" d="M3562.29 2195.54c20.48,-7.65 43.31,2.76 50.95,23.25 7.65,20.48 -2.76,43.3 -23.24,50.95 -20.49,7.65 -43.31,-2.76 -50.95,-23.24 -7.66,-20.49 2.75,-43.31 23.24,-50.96z"/>
    <path class="fil1" d="M3170.84 2078.36c20.6,-7.69 43.55,2.78 51.24,23.38 7.7,20.6 -2.77,43.56 -23.37,51.25 -20.61,7.7 -43.56,-2.77 -51.25,-23.38 -7.7,-20.6 2.77,-43.56 23.38,-51.25z"/>
    <path class="fil1" d="M2764.2 2065.13c20.76,-7.75 43.87,2.79 51.62,23.54 7.75,20.76 -2.79,43.87 -23.55,51.62 -20.75,7.75 -43.86,-2.79 -51.61,-23.55 -7.75,-20.75 2.79,-43.87 23.54,-51.61z"/>
    <path class="fil1" d="M2364.53 2156.16c20.92,-7.81 44.21,2.81 52.02,23.73 7.81,20.91 -2.82,44.21 -23.73,52.01 -20.91,7.82 -44.21,-2.81 -52.01,-23.72 -7.82,-20.92 2.81,-44.21 23.72,-52.02z"/>
    <path class="fil1" d="M1999.57 2338.33c21.08,-7.87 44.56,2.84 52.42,23.92 7.88,21.07 -2.83,44.55 -23.91,52.42 -21.08,7.87 -44.56,-2.84 -52.42,-23.91 -7.88,-21.08 2.83,-44.56 23.91,-52.43z"/>
    <path class="fil1" d="M1679.86 2598.65c21.08,-7.87 44.55,2.84 52.42,23.92 7.88,21.07 -2.83,44.55 -23.91,52.42 -21.08,7.87 -44.56,-2.84 -52.42,-23.91 -7.88,-21.08 2.83,-44.56 23.91,-52.43z"/>
    <path class="fil1" d="M1458.47 2958.33c21.08,-7.88 44.56,2.83 52.42,23.91 7.88,21.08 -2.83,44.55 -23.91,52.42 -21.08,7.88 -44.55,-2.83 -52.42,-23.91 -7.88,-21.08 2.83,-44.56 23.91,-52.42z"/>
    <path class="fil1" d="M1323.72 3328.65c21.08,-7.87 44.56,2.84 52.42,23.92 7.88,21.07 -2.83,44.55 -23.91,52.42 -21.08,7.87 -44.56,-2.84 -52.42,-23.91 -7.88,-21.08 2.83,-44.56 23.91,-52.43z"/>
    <path class="fil1" d="M1285.6 3738.57c21.08,-7.88 44.56,2.83 52.43,23.91 7.87,21.08 -2.84,44.56 -23.92,52.42 -21.07,7.88 -44.55,-2.83 -52.42,-23.91 -7.87,-21.08 2.84,-44.56 23.91,-52.42z"/>
   </g>
   <path class="fil2" d="M-0 4567.06c408.06,-167.72 889.03,-344.59 1501.69,-499.6 149.32,650.5 731.78,1135.69 1427.6,1135.69 808.94,0 1464.73,-655.79 1464.73,-1464.73 0,-190.01 -36.19,-371.55 -102.04,-538.15 441.33,-293.03 799.96,-631.66 1106.28,-902.52l0 5604.09 -5398.26 0 0 -3334.8z"/>
   <path class="fil3" d="M-0 4630.29c417.26,-171.49 926.58,-333.1 1533.18,-447.77 188.09,591.82 741.99,1020.63 1396.11,1020.63 808.94,0 1464.73,-655.79 1464.73,-1464.73 0,-52.3 -2.79,-103.97 -8.14,-154.85 402.29,-195.13 737.29,-432.42 1012.38,-675.67l0 4145.62c0,0 -356.73,731.45 -3099.82,848.33l-2298.44 0 0 -3271.57z"/>
  </g>
  <path class="fil4" d="M365.35 669.53c6.44,0 11.66,5.22 11.66,11.66 0,6.43 -5.22,11.65 -11.66,11.65 -6.43,0 -11.65,-5.22 -11.65,-11.65 0,-6.44 5.22,-11.66 11.65,-11.66z"/>
  <path class="fil4" d="M381.04 619.6c6.43,0 11.65,5.21 11.65,11.65 0,6.43 -5.22,11.65 -11.65,11.65 -6.44,0 -11.65,-5.22 -11.65,-11.65 0,-6.44 5.21,-11.65 11.65,-11.65z"/>
  <path class="fil4" d="M404.67 572.56c6.43,0 11.65,5.22 11.65,11.65 0,6.44 -5.22,11.66 -11.65,11.66 -6.44,0 -11.66,-5.22 -11.66,-11.66 0,-6.43 5.22,-11.65 11.66,-11.65z"/>
  <path class="fil4" d="M435.09 530.07c6.43,0 11.65,5.22 11.65,11.66 0,6.43 -5.22,11.65 -11.65,11.65 -6.44,0 -11.66,-5.22 -11.66,-11.65 0,-6.44 5.22,-11.66 11.66,-11.66z"/>
  <path class="fil4" d="M471.83 492.57c6.44,0 11.65,5.22 11.65,11.65 0,6.44 -5.21,11.65 -11.65,11.65 -6.43,0 -11.65,-5.21 -11.65,-11.65 0,-6.43 5.22,-11.65 11.65,-11.65z"/>
  <path class="fil4" d="M514.19 461.33c6.43,0 11.65,5.22 11.65,11.66 0,6.43 -5.22,11.65 -11.65,11.65 -6.44,0 -11.65,-5.22 -11.65,-11.65 0,-6.44 5.21,-11.66 11.65,-11.66z"/>
  <path class="fil4" d="M560.75 437.03c6.44,0 11.65,5.22 11.65,11.66 0,6.43 -5.21,11.65 -11.65,11.65 -6.43,0 -11.65,-5.22 -11.65,-11.65 0,-6.44 5.22,-11.66 11.65,-11.66z"/>
  <path class="fil4" d="M610.37 420.79c6.44,0 11.65,5.22 11.65,11.65 0,6.44 -5.21,11.66 -11.65,11.66 -6.43,0 -11.65,-5.22 -11.65,-11.66 0,-6.43 5.22,-11.65 11.65,-11.65z"/>
  <path class="fil4" d="M662.22 411.92c6.44,0 11.66,5.22 11.66,11.66 0,6.43 -5.22,11.65 -11.66,11.65 -6.43,0 -11.65,-5.22 -11.65,-11.65 0,-6.44 5.22,-11.66 11.65,-11.66z"/>
  <path class="fil4" d="M1015.65 664.46c-6.58,0 -11.91,5.33 -11.91,11.91 0,6.57 5.33,11.91 11.91,11.91 6.58,0 11.91,-5.34 11.91,-11.91 0,-6.58 -5.33,-11.91 -11.91,-11.91z"/>
  <path class="fil4" d="M999.02 614.56c-6.51,0 -11.79,5.28 -11.79,11.79 0,6.51 5.28,11.79 11.79,11.79 6.51,0 11.79,-5.28 11.79,-11.79 0,-6.51 -5.28,-11.79 -11.79,-11.79z"/>
  <path class="fil4" d="M974.69 567.93c-6.44,0 -11.65,5.21 -11.65,11.65 0,6.43 5.21,11.65 11.65,11.65 6.44,0 11.65,-5.22 11.65,-11.65 0,-6.44 -5.21,-11.65 -11.65,-11.65z"/>
  <path class="fil4" d="M943.74 525.76c-6.43,0 -11.65,5.22 -11.65,11.65 0,6.44 5.22,11.66 11.65,11.66 6.44,0 11.66,-5.22 11.66,-11.66 0,-6.43 -5.22,-11.65 -11.66,-11.65z"/>
  <path class="fil4" d="M906.41 488.78c-6.43,0 -11.65,5.22 -11.65,11.65 0,6.44 5.22,11.66 11.65,11.66 6.44,0 11.66,-5.22 11.66,-11.66 0,-6.43 -5.22,-11.65 -11.66,-11.65z"/>
  <path class="fil4" d="M863.58 458.83c-6.44,0 -11.65,5.22 -11.65,11.65 0,6.44 5.21,11.66 11.65,11.66 6.43,0 11.65,-5.22 11.65,-11.66 0,-6.43 -5.22,-11.65 -11.65,-11.65z"/>
  <path class="fil4" d="M816.53 435.44c-6.44,0 -11.65,5.21 -11.65,11.65 0,6.44 5.21,11.65 11.65,11.65 6.44,0 11.65,-5.21 11.65,-11.65 0,-6.44 -5.21,-11.65 -11.65,-11.65z"/>
  <path class="fil4" d="M766.55 419.43c-6.44,0 -11.65,5.21 -11.65,11.65 0,6.44 5.21,11.65 11.65,11.65 6.43,0 11.65,-5.21 11.65,-11.65 0,-6.44 -5.22,-11.65 -11.65,-11.65z"/>
  <path class="fil4" d="M714.42 411.73c-6.44,0 -11.66,5.22 -11.66,11.65 0,6.44 5.22,11.66 11.66,11.66 6.43,0 11.65,-5.22 11.65,-11.66 0,-6.43 -5.22,-11.65 -11.65,-11.65z"/>
  <path class="fil5" d="M413.11 652.75c6.92,0 12.52,5.61 12.52,12.52 0,6.92 -5.6,12.52 -12.52,12.52 -6.91,0 -12.52,-5.6 -12.52,-12.52 0,-6.91 5.61,-12.52 12.52,-12.52z"/>
  <path class="fil5" d="M434.01 604.81c6.91,0 12.52,5.61 12.52,12.52 0,6.92 -5.61,12.52 -12.52,12.52 -6.92,0 -12.52,-5.6 -12.52,-12.52 0,-6.91 5.6,-12.52 12.52,-12.52z"/>
  <path class="fil5" d="M463 561.07c6.92,0 12.52,5.6 12.52,12.52 0,6.91 -5.6,12.52 -12.52,12.52 -6.91,0 -12.52,-5.61 -12.52,-12.52 0,-6.92 5.61,-12.52 12.52,-12.52z"/>
  <path class="fil5" d="M499.28 523.21c6.92,0 12.52,5.61 12.52,12.52 0,6.92 -5.6,12.52 -12.52,12.52 -6.91,0 -12.52,-5.6 -12.52,-12.52 0,-6.91 5.61,-12.52 12.52,-12.52z"/>
  <path class="fil5" d="M541.9 492.78c6.92,0 12.52,5.6 12.52,12.52 0,6.91 -5.6,12.52 -12.52,12.52 -6.91,0 -12.52,-5.61 -12.52,-12.52 0,-6.92 5.61,-12.52 12.52,-12.52z"/>
  <path class="fil5" d="M589.1 470c6.91,0 12.52,5.6 12.52,12.52 0,6.91 -5.61,12.52 -12.52,12.52 -6.92,0 -12.52,-5.61 -12.52,-12.52 0,-6.92 5.6,-12.52 12.52,-12.52z"/>
  <path class="fil5" d="M639.71 456.03c6.91,0 12.52,5.61 12.52,12.52 0,6.92 -5.61,12.52 -12.52,12.52 -6.91,0 -12.52,-5.6 -12.52,-12.52 0,-6.91 5.61,-12.52 12.52,-12.52z"/>
  <path class="fil5" d="M692.06 451.47c6.91,0 12.52,5.61 12.52,12.52 0,6.92 -5.61,12.52 -12.52,12.52 -6.92,0 -12.52,-5.6 -12.52,-12.52 0,-6.91 5.6,-12.52 12.52,-12.52z"/>
  <path class="fil5" d="M744.51 456.62c6.92,0 12.52,5.6 12.52,12.52 0,6.91 -5.6,12.52 -12.52,12.52 -6.91,0 -12.52,-5.61 -12.52,-12.52 0,-6.92 5.61,-12.52 12.52,-12.52z"/>
  <path class="fil5" d="M794.98 470.96c6.91,0 12.52,5.61 12.52,12.52 0,6.92 -5.61,12.52 -12.52,12.52 -6.91,0 -12.52,-5.6 -12.52,-12.52 0,-6.91 5.61,-12.52 12.52,-12.52z"/>
  <path class="fil5" d="M842.05 493.36c6.92,0 12.52,5.61 12.52,12.52 0,6.92 -5.6,12.52 -12.52,12.52 -6.91,0 -12.52,-5.6 -12.52,-12.52 0,-6.91 5.61,-12.52 12.52,-12.52z"/>
  <path class="fil5" d="M884.47 524.44c6.91,0 12.52,5.6 12.52,12.52 0,6.91 -5.61,12.52 -12.52,12.52 -6.91,0 -12.52,-5.61 -12.52,-12.52 0,-6.92 5.61,-12.52 12.52,-12.52z"/>
  <path class="fil5" d="M920.56 562.73c6.92,0 12.52,5.61 12.52,12.52 0,6.92 -5.6,12.52 -12.52,12.52 -6.91,0 -12.52,-5.6 -12.52,-12.52 0,-6.91 5.61,-12.52 12.52,-12.52z"/>
  <path class="fil5" d="M949.07 606.94c6.75,0 12.23,5.48 12.23,12.23 0,6.76 -5.48,12.24 -12.23,12.24 -6.76,0 -12.23,-5.48 -12.23,-12.24 0,-6.75 5.47,-12.23 12.23,-12.23z"/>
  <path class="fil5" d="M969.64 655.31c6.75,0 12.23,5.48 12.23,12.24 0,6.75 -5.48,12.23 -12.23,12.23 -6.76,0 -12.24,-5.48 -12.24,-12.23 0,-6.76 5.48,-12.24 12.24,-12.24z"/>
  <path class="fil6" d="M446.64 691.42c4.92,0 8.9,3.99 8.9,8.91 0,4.91 -3.98,8.9 -8.9,8.9 -4.92,0 -8.9,-3.99 -8.9,-8.9 0,-4.92 3.98,-8.91 8.9,-8.91z"/>
  <path class="fil6" d="M463.98 641.79c4.92,0 8.91,3.99 8.91,8.91 0,4.91 -3.99,8.9 -8.91,8.9 -4.91,0 -8.9,-3.99 -8.9,-8.9 0,-4.92 3.99,-8.91 8.9,-8.91z"/>
  <path class="fil6" d="M490.73 596.6c4.92,0 8.9,3.99 8.9,8.9 0,4.92 -3.98,8.91 -8.9,8.91 -4.92,0 -8.9,-3.99 -8.9,-8.91 0,-4.91 3.98,-8.9 8.9,-8.9z"/>
  <path class="fil6" d="M526.75 558.54c4.91,0 8.9,3.98 8.9,8.9 0,4.92 -3.99,8.91 -8.9,8.91 -4.92,0 -8.91,-3.99 -8.91,-8.91 0,-4.92 3.99,-8.9 8.91,-8.9z"/>
  <path class="fil6" d="M569.89 528.47c4.92,0 8.9,3.99 8.9,8.9 0,4.92 -3.98,8.91 -8.9,8.91 -4.92,0 -8.91,-3.99 -8.91,-8.91 0,-4.91 3.99,-8.9 8.91,-8.9z"/>
  <path class="fil6" d="M618.02 508.14c4.92,0 8.9,3.99 8.9,8.91 0,4.92 -3.98,8.9 -8.9,8.9 -4.92,0 -8.9,-3.98 -8.9,-8.9 0,-4.92 3.98,-8.91 8.9,-8.91z"/>
  <path class="fil6" d="M669.57 498.03c4.92,0 8.9,3.99 8.9,8.91 0,4.92 -3.98,8.9 -8.9,8.9 -4.92,0 -8.91,-3.98 -8.91,-8.9 0,-4.92 3.99,-8.91 8.91,-8.91z"/>
  <path class="fil6" d="M722 499.17c4.92,0 8.91,3.99 8.91,8.91 0,4.91 -3.99,8.9 -8.91,8.9 -4.91,0 -8.9,-3.99 -8.9,-8.9 0,-4.92 3.99,-8.91 8.9,-8.91z"/>
  <path class="fil6" d="M772.94 510.74c4.92,0 8.9,3.99 8.9,8.91 0,4.91 -3.98,8.9 -8.9,8.9 -4.92,0 -8.91,-3.99 -8.91,-8.9 0,-4.92 3.99,-8.91 8.91,-8.91z"/>
  <path class="fil6" d="M820.52 533.03c4.92,0 8.91,3.98 8.91,8.9 0,4.92 -3.99,8.9 -8.91,8.9 -4.91,0 -8.9,-3.98 -8.9,-8.9 0,-4.92 3.99,-8.9 8.9,-8.9z"/>
  <path class="fil6" d="M862.46 564.69c4.92,0 8.9,3.99 8.9,8.9 0,4.92 -3.98,8.91 -8.9,8.91 -4.92,0 -8.9,-3.99 -8.9,-8.91 0,-4.91 3.98,-8.9 8.9,-8.9z"/>
  <path class="fil6" d="M896.75 604.41c4.92,0 8.9,3.99 8.9,8.91 0,4.91 -3.98,8.9 -8.9,8.9 -4.92,0 -8.9,-3.99 -8.9,-8.9 0,-4.92 3.98,-8.91 8.9,-8.91z"/>
  <path class="fil6" d="M922.19 650.24c4.92,0 8.9,3.98 8.9,8.9 0,4.92 -3.98,8.9 -8.9,8.9 -4.92,0 -8.91,-3.98 -8.91,-8.9 0,-4.92 3.99,-8.9 8.91,-8.9z"/>
  <path class="fil6" d="M937.35 700.4c4.84,0 8.77,3.93 8.77,8.77 0,4.84 -3.93,8.77 -8.77,8.77 -4.84,0 -8.76,-3.93 -8.76,-8.77 0,-4.84 3.92,-8.77 8.76,-8.77z"/>
  <path class="fil7" d="M890.82 689.98c2.77,0 5.02,2.25 5.02,5.03 0,2.77 -2.25,5.02 -5.02,5.02 -2.78,0 -5.03,-2.25 -5.03,-5.02 0,-2.78 2.25,-5.03 5.03,-5.03z"/>
  <path class="fil7" d="M869.45 642.05c2.81,0 5.09,2.28 5.09,5.09 0,2.8 -2.28,5.08 -5.09,5.08 -2.8,0 -5.08,-2.28 -5.08,-5.08 0,-2.81 2.28,-5.09 5.08,-5.09z"/>
  <path class="fil7" d="M836.3 601.36c2.81,0 5.09,2.27 5.09,5.08 0,2.81 -2.28,5.09 -5.09,5.09 -2.8,0 -5.08,-2.28 -5.08,-5.09 0,-2.81 2.28,-5.08 5.08,-5.08z"/>
  <path class="fil7" d="M794.5 569.7c2.83,0 5.12,2.29 5.12,5.11 0,2.82 -2.29,5.11 -5.12,5.11 -2.82,0 -5.11,-2.29 -5.11,-5.11 0,-2.82 2.29,-5.11 5.11,-5.11z"/>
  <path class="fil7" d="M746.22 549.84c2.84,0 5.15,2.31 5.15,5.15 0,2.85 -2.31,5.15 -5.15,5.15 -2.84,0 -5.15,-2.3 -5.15,-5.15 0,-2.84 2.31,-5.15 5.15,-5.15z"/>
  <path class="fil7" d="M694.09 542.85c2.87,0 5.19,2.32 5.19,5.19 0,2.87 -2.32,5.19 -5.19,5.19 -2.87,0 -5.19,-2.32 -5.19,-5.19 0,-2.87 2.32,-5.19 5.19,-5.19z"/>
  <path class="fil7" d="M642.03 548.36c2.89,0 5.23,2.34 5.23,5.23 0,2.88 -2.34,5.23 -5.23,5.23 -2.89,0 -5.23,-2.35 -5.23,-5.23 0,-2.89 2.34,-5.23 5.23,-5.23z"/>
  <path class="fil7" d="M591.91 565.3c2.89,0 5.23,2.34 5.23,5.23 0,2.89 -2.34,5.23 -5.23,5.23 -2.88,0 -5.23,-2.34 -5.23,-5.23 0,-2.89 2.35,-5.23 5.23,-5.23z"/>
  <path class="fil7" d="M549.15 598.6c2.89,0 5.23,2.34 5.23,5.23 0,2.89 -2.34,5.23 -5.23,5.23 -2.89,0 -5.23,-2.34 -5.23,-5.23 0,-2.89 2.34,-5.23 5.23,-5.23z"/>
  <path class="fil7" d="M516.32 637.06c2.89,0 5.23,2.34 5.23,5.23 0,2.89 -2.34,5.23 -5.23,5.23 -2.88,0 -5.23,-2.34 -5.23,-5.23 0,-2.89 2.35,-5.23 5.23,-5.23z"/>
  <path class="fil7" d="M493.34 684.63c2.89,0 5.23,2.34 5.23,5.23 0,2.89 -2.34,5.23 -5.23,5.23 -2.89,0 -5.23,-2.34 -5.23,-5.23 0,-2.89 2.34,-5.23 5.23,-5.23z"/>
  <path class="fil8" d="M691.84 668.04c45.07,0 81.6,36.54 81.6,81.6 0,45.08 -36.54,81.61 -81.6,81.61 -45.08,0 -81.61,-36.54 -81.61,-81.61 0,-45.07 36.54,-81.6 81.61,-81.6z"/>
  <polygon class="fil8" points="689,586.32 698.31,586.32 697.49,652.77 690.43,652.77 "/>
  <polygon class="fil8" points="731.57,590.54 740.54,593.09 721.55,656.78 714.77,654.84 "/>
  <polygon class="fil8" points="770.77,606.7 778.8,611.43 744.32,668.24 738.24,664.67 "/>
  <polygon class="fil8" points="805.22,631.58 811.95,638.37 763.84,684.21 759.17,679.4 "/>
  <polygon class="fil8" points="831.02,664.21 836.35,673.13 778.14,705.18 775,699.66 "/>
  <polygon class="fil8" points="848.05,702.87 851.17,713.45 786.63,728.89 784.79,722.81 "/>
  <polygon class="fil8" points="854.59,745.39 854.9,759.27 788.93,756.1 788.61,747.29 "/>
  <polygon class="fil8" points="849.43,791.27 846.67,800.85 783.63,780.81 785.46,774.82 "/>
  <polygon class="fil8" points="833.05,830.58 828.61,839.52 772.41,803.62 775.29,798.06 "/>
  <polygon class="fil8" points="807.68,863.86 800.28,870.98 756.07,822.02 760.47,818.46 "/>
  <polygon class="fil8" points="774.61,890.32 765.29,895.45 735.42,835.98 739.91,833.53 "/>
  <polygon class="fil8" points="735.01,906.8 724.99,909.18 711.88,844.5 717.1,843.46 "/>
  <polygon class="fil8" points="693.57,912.2 682.97,912.41 686.12,846.15 691.44,846.41 "/>
  <polygon class="fil8" points="650.97,907.01 641.16,904.58 661.4,841.25 666.77,842.87 "/>
  <polygon class="fil8" points="612.26,890.7 603.08,886.52 638.85,830.62 643.84,833.19 "/>
  <polygon class="fil8" points="578.25,866.12 571.02,858.81 619.43,813.89 623.73,817.48 "/>
  <polygon class="fil8" points="551.85,832.59 546.81,823.62 605.41,793.16 608.61,797.77 "/>
  <polygon class="fil8" points="535.07,793.71 532.45,783.77 596.91,769.53 598.57,775.21 "/>
  <polygon class="fil8" points="529.01,751.75 529.09,740.94 595.39,744.26 595.49,750.7 "/>
  <polygon class="fil8" points="533.98,710.14 536.78,699.69 600.05,719.26 598.52,725.52 "/>
  <polygon class="fil8" points="549.34,669.77 554.77,661.15 610.56,697.13 607.86,702.15 "/>
  <polygon class="fil8" points="575.1,636.4 582.37,629.34 626.51,677.57 622.69,681.56 "/>
  <polygon class="fil8" points="608.09,610.07 616.45,605.26 647.76,662.61 642.52,665.93 "/>
  <polygon class="fil8" points="646.67,592.72 656.67,590.04 671.86,655.03 665.86,656.59 "/>
  <path class="fil9" d="M930.86 834.58c-12.55,-14.31 -29.11,-17.24 -46.11,-6 -14.73,9.75 -18.02,26.25 -29,37.32 -39.7,40.01 -119.56,56.86 -146.1,119.14 -6.63,15.52 -11.84,36.45 -12.39,53.92 -0.17,5.2 -1.23,8.71 -1.2,15.09l-0.01 32.59c-0.04,6.52 1.17,9.72 1.17,16.27 7.85,0 13.05,-1.05 20.98,-1.12 11.57,-0.11 47.33,-6.69 57.91,-9.56 111.38,-30.22 193.79,-104.29 235.92,-211.98 12.25,-31.31 21.39,-77.73 21.39,-112.39 0,-7.37 -0.02,-14.75 0.01,-22.11 0.02,-3.06 -1.23,-19.21 -1.94,-21.32 -3.38,-2.71 -11.92,-3.51 -16.7,-3.11 -5.27,0.45 -11.15,2.03 -16.28,4.65 -30.3,15.43 -32.42,58.57 -38.84,84.48 -13.95,56.32 -50.97,113.76 -91.73,154.9 -3.94,3.98 -6.67,7.7 -13.26,5.74 -5.1,-1.51 -8.69,-7.98 -6.74,-12.85 0.96,-2.37 17.8,-17.45 21.15,-20.81 25.77,-25.77 34.84,-42.3 50.32,-73 5.01,-9.92 7.3,-20.64 11.43,-29.85z"/>
  <path class="fil9" d="M350.74 723.86c-4.34,55.99 0.39,104.7 19.72,156.72 13.3,35.8 41.84,84.87 68.21,110.95 35.95,35.55 55.95,53.13 102.67,76.49 21.48,10.75 43.07,18.65 65.38,24.2 22.85,5.68 55.55,10.7 78.87,10.7l1.19 -47.71c0,-5.99 -1.1,-9.69 -1.15,-16.3 -0.11,-14 -6.87,-40.34 -12.83,-53.49 -14.51,-32.05 -36.87,-49.09 -65.86,-66.76 -26.7,-16.27 -58.16,-31.3 -79.86,-52.76 -9.93,-9.81 -10.81,-21.8 -29.1,-37.21 -14.65,-12.34 -34.17,-7.71 -45.93,5.81 1.93,15.57 22.6,54.63 32.98,68.8 16.43,22.44 17.26,22.73 35.65,41.13 4.56,4.56 9.03,7.82 13.38,12.23 1,8.48 -1.54,17.62 -12.09,14.47 -9.38,-2.82 -35.04,-36.26 -40.94,-44.05 -26.05,-34.43 -55.03,-89.85 -61.97,-134.64 -3.06,-19.77 -10.18,-46.23 -25.16,-59.76 -11.75,-10.6 -28.39,-14.16 -43.17,-8.8z"/>
  <path class="fil9" d="M898.88 1187.11c4.92,1.49 17.05,-1.36 17.05,18.18l0 119.83 27.92 0 0 -69.81 57.01 0 0 48.86c0,26.02 19.17,20.94 45.37,20.94l0 -6.98c-11.73,0 -17.44,-4.09 -17.44,-18.61l0 -118.67 -27.92 0 0 63.99 -57.01 0c0,-13.81 2.28,-49.05 -3.66,-57.99 -6.07,-9.14 -23.91,-6 -41.71,-6l0.39 6.25z"/>
  <path class="fil9" d="M468.91 1315.52c1.59,-13.53 -2.26,-41.87 3.37,-53.63 5.45,-11.39 10.89,-0.74 10.89,-12.38 -55.52,0 -37.6,25.93 -42.18,64.84 -1.39,2.61 -41.33,17.51 -62.08,-10.61 -18.37,-24.89 -21.72,-115.22 30.92,-117.1 44,-1.58 42.45,30.38 48.04,38.14l5.94 -0.09c0.98,-3.28 -0.44,-19.25 -2.58,-25.38 -8.39,-24.05 -74.87,-36.28 -105.19,-2.47 -11.68,13.03 -15.62,25.11 -18.57,41.93 -0.41,2.34 -0.71,4.7 -0.89,7.07l0 11.71c1.91,25.22 15.94,49.42 37.24,61.76 15.95,9.24 29.97,11.22 48.89,10.53 11.91,-0.44 36.55,-6.68 46.2,-14.31z"/>
  <path class="fil9" d="M612.3 1187.85c15.24,0 20.93,6.6 20.93,22.1l0 115.17 10.48 0 0 -107.04 89.68 108.06 10.37 0.14 0 -145.42 -11.64 0 0 98.89c-4.97,-3.54 -16.92,-20.73 -22.38,-26.47l-44.39 -53.34c-16.76,-22.64 -27.62,-19.07 -53.05,-19.07l0 6.99z"/>
  <path class="fil9" d="M487.82 1187.85c11.47,0 17.44,2.77 17.44,20.93l0 116.34c109.83,0 85.88,6.77 103.35,-32.18l-5.68 -2.79c0,0 -3.97,9.34 -10.7,16.07 -5.28,5.28 -11.75,8.42 -19.49,8.42l-39.56 0 0 -59.33 54.68 0 0 -10.47 -54.68 0 0 -53.51c36.22,0 59.33,-6.27 59.33,25.59l8.15 0c0,-8.14 1.03,-23.63 -3.67,-30.07 -1.51,-2.06 -2.22,-2.97 -4.96,-4.35 -6.94,-3.5 -90.03,-1.65 -104.22,-1.65l0 6.99z"/>
  <path class="fil9" d="M818.22 1220.42c0.16,0.23 0.41,0.3 0.47,0.69l2.55 5.6c3.74,9.54 18.69,43.91 19.08,48.39l-46.54 0c4.13,-8.21 8.63,-18.87 12.1,-27.46 1.89,-4.69 4.17,-9.04 6.06,-13.72l4.74 -11.56c0.8,-1.48 0.8,-1.12 1.54,-1.95zm-57.83 104.51l11.3 0.23 4.5 -9.49c3.2,-8.25 11.15,-22.66 12.96,-30.1l55.84 0c6.63,13.1 6.54,20.97 18.28,31.73 9.48,8.69 27.77,10.75 39.88,7.83 0,0 0.08,-5.54 0.08,-5.54 0,0 -5.49,0.8 -14.94,-8.69 -7.55,-7.81 -40.17,-93.08 -47.27,-110.94 -2.3,-5.78 -6.32,-13.53 -7.67,-19.09l-10.28 0.07 -62.68 143.99z"/>
  <circle class="fil10 str0" cx="2929.28" cy="3738.42" r="1464.73"/>
 </g>
</svg>